# xmcd
#
# Track frame offsets: 
#        150
#        7730
#        31120
#        48835
#        71232
#        88932
#        113230
#        131452
#        148700
#        174892
#        200062
#        217837
#        239415
#
# Disc length: 3578 seconds
#
# Revision: 0
# Processed by: cddbd v1.5.2PL0 Copyright (c) Steve Scherf et al.
# Submitted via: ExactAudioCopy v1.0b3
#
DISCID=ae0df80d
DTITLE=Riot - The Brethren Of The Long House
DYEAR=1995
DGENRE=Metal
TTITLE0=The Last Of The Mohicans (Intro)
TTITLE1=Glory Calling
TTITLE2=Rolling Thunder
TTITLE3=Rain
TTITLE4=Wounded Heart
TTITLE5=The Brethren Of The Long House
TTITLE6=Out In The Fields
TTITLE7=Santa Maria
TTITLE8=Blood Of The English
TTITLE9=Ghost Dance
TTITLE10=Shenandoah
TTITLE11=Holy Land
TTITLE12=The Last Of The Mohicans
EXTD=
EXTT0=
EXTT1=
EXTT2=
EXTT3=
EXTT4=
EXTT5=
EXTT6=
EXTT7=
EXTT8=
EXTT9=
EXTT10=
EXTT11=
EXTT12=
PLAYORDER=
